<svg width="35" height="24" viewBox="0 0 35 24" fill="none" xmlns="http://www.w3.org/2000/svg">
<path fill-rule="evenodd" clip-rule="evenodd" d="M13.4244 0.962664C13.4979 0.835356 13.6037 0.72964 13.731 0.65614C13.8583 0.58264 14.0027 0.543945 14.1497 0.543945C14.2967 0.543945 14.4411 0.58264 14.5685 0.65614C14.6958 0.72964 14.8015 0.835356 14.875 0.962664L19.0793 8.25152C18.6596 9.30214 18.4835 10.4343 18.5644 11.5627C18.6453 12.6912 18.981 13.7866 19.5462 14.7667C20.1115 15.7467 20.8916 16.5858 21.8279 17.2208C22.7642 17.8559 23.8323 18.2704 24.9519 18.4331L27.4352 22.7396C27.5087 22.867 27.5474 23.0115 27.5474 23.1586C27.5473 23.3057 27.5086 23.4502 27.435 23.5775C27.3614 23.7048 27.2555 23.8106 27.1281 23.884C27.0007 23.9574 26.8561 23.996 26.709 23.9959H1.58956C1.44255 23.9959 1.29813 23.9572 1.17082 23.8837C1.0435 23.8102 0.93778 23.7044 0.864275 23.5771C0.790771 23.4498 0.752074 23.3054 0.752075 23.1584C0.752076 23.0114 0.790774 22.8669 0.86428 22.7396L13.4244 0.962664ZM13.102 19.4298V17.336H15.1974V19.4298H13.102ZM14.1497 8.95671C13.5718 8.95671 13.1028 9.42571 13.1028 10.0036V14.6099C13.1028 14.8878 13.2132 15.1543 13.4097 15.3508C13.6062 15.5472 13.8727 15.6576 14.1506 15.6576C14.4284 15.6576 14.6949 15.5472 14.8914 15.3508C15.0879 15.1543 15.1983 14.8878 15.1983 14.6099V10.0036C15.1983 9.42571 14.7284 8.95671 14.1497 8.95671Z" fill="#4D99FC"/>
<path fill-rule="evenodd" clip-rule="evenodd" d="M20.2219 10.9836C20.2236 10.7547 20.2384 10.5299 20.2663 10.3094C20.374 9.44253 20.6758 8.61113 21.1493 7.87708C21.6228 7.14303 22.2558 6.52523 23.0011 6.06968C23.7464 5.61413 24.5849 5.33255 25.4541 5.24592C26.3233 5.15929 27.2009 5.26983 28.0215 5.56931C28.842 5.86879 29.5845 6.34951 30.1936 6.97566C30.8026 7.60182 31.2626 8.35729 31.5393 9.18583C31.8159 10.0144 31.9022 10.8947 31.7915 11.7611C31.6809 12.6276 31.3762 13.458 30.9002 14.1904L34.2536 17.5438L32.9906 18.8076L29.7059 15.5229C28.6697 16.3736 27.3699 16.8376 26.0292 16.8353C25.2518 16.8366 24.4822 16.6811 23.7663 16.378C23.0554 16.0761 22.4116 15.636 21.8723 15.0832C21.333 14.5303 20.909 13.8759 20.6248 13.1578C20.3575 12.4799 20.2208 11.7575 20.2219 11.0288V10.9836ZM26.0284 15.0489C26.5563 15.0489 27.0791 14.9449 27.5668 14.7429C28.0545 14.5408 28.4977 14.2447 28.871 13.8714C29.2443 13.4981 29.5404 13.055 29.7424 12.5672C29.9445 12.0795 30.0485 11.5567 30.0485 11.0288C30.0485 10.5009 29.9445 9.97814 29.7424 9.4904C29.5404 9.00266 29.2443 8.5595 28.871 8.1862C28.4977 7.8129 28.0545 7.51679 27.5668 7.31476C27.0791 7.11274 26.5563 7.00875 26.0284 7.00875C24.9622 7.00875 23.9397 7.43229 23.1858 8.1862C22.4319 8.94011 22.0083 9.96262 22.0083 11.0288C22.0083 12.095 22.4319 13.1175 23.1858 13.8714C23.9397 14.6253 24.9622 15.0489 26.0284 15.0489Z" fill="#4D99FC"/>
</svg>
