<svg width="12" height="12" viewBox="0 0 12 12" fill="none" xmlns="http://www.w3.org/2000/svg">
<path d="M8.978 1.614L10.3205 6.364C10.3415 6.43841 10.345 6.51668 10.3307 6.59266C10.3164 6.66864 10.2846 6.74027 10.2379 6.8019C10.1912 6.86354 10.1309 6.91351 10.0616 6.94788C9.99236 6.98225 9.91607 7.00009 9.83875 7H6.96875C6.79275 7 6.66275 7.1635 6.70225 7.335L6.82725 7.876C6.94175 8.37225 6.9785 8.8835 6.93625 9.391L6.91325 9.66675C6.88861 9.96258 6.75991 10.2401 6.55 10.45C6.35793 10.642 6.09754 10.7498 5.826 10.75H5.766C5.68542 10.7499 5.60633 10.7283 5.53688 10.6875C5.46744 10.6466 5.41018 10.5879 5.371 10.5175L4.70625 9.32125C4.40823 8.78482 3.964 8.34406 3.42525 8.05025L1.7605 7.142C1.68172 7.09901 1.61597 7.03562 1.57013 6.95846C1.5243 6.88131 1.50007 6.79324 1.5 6.7035V1.75C1.5 1.61739 1.55268 1.49021 1.64645 1.39645C1.74021 1.30268 1.86739 1.25 2 1.25H8.49675C8.60562 1.25003 8.71151 1.2856 8.79832 1.3513C8.88514 1.41699 8.94839 1.50923 8.978 1.614Z" stroke="#686868" stroke-linecap="round" stroke-linejoin="round"/>
</svg>
