<svg width="73" height="35" viewBox="0 0 73 35" fill="none" xmlns="http://www.w3.org/2000/svg">
<path d="M36.4947 33.5C28.618 33.4995 20.9654 32.3183 14.7416 30.1424C8.51782 27.9665 4.07637 24.9195 2.11649 21.4811C0.156616 18.0427 0.789619 14.4082 3.91586 11.1497C7.04208 7.8912 12.484 5.19387 19.3848 3.48232C26.2857 1.77077 34.2535 1.14222 42.0339 1.69562C49.8143 2.24902 56.9654 3.95294 62.3614 6.53913C67.7574 9.12532 71.0918 12.4469 71.8396 15.9809C72.5874 19.5149 70.7062 23.0607 66.4922 26.06L71.9947 33.5L55.4872 31.02C49.8089 32.6443 43.2202 33.5046 36.4947 33.5Z" fill="#D0D6FD" stroke="#D0D6FD" stroke-width="1.33333" stroke-linecap="round" stroke-linejoin="round"/>
</svg>
