<svg width="7" height="13" viewBox="0 0 7 13" fill="none" xmlns="http://www.w3.org/2000/svg">
<path d="M0.677105 4.62561L0.677105 9.94155C0.677156 10.6377 0.953713 11.3053 1.44595 11.7975C1.93819 12.2897 2.60579 12.5663 3.30191 12.5664C3.64664 12.5664 3.98799 12.4985 4.30647 12.3665C4.62495 12.2346 4.91433 12.0413 5.15809 11.7975C5.40184 11.5538 5.5952 11.2644 5.72712 10.9459C5.85904 10.6274 5.92693 10.2861 5.92693 9.94134L5.92714 2.64974C5.92716 2.41991 5.8819 2.19231 5.79395 1.97997C5.70601 1.76762 5.57709 1.57468 5.41457 1.41216C5.25205 1.24964 5.05911 1.12072 4.84676 1.03278C4.63442 0.944832 4.40683 0.899576 4.17699 0.899596C3.94715 0.899576 3.71956 0.944831 3.50721 1.03278C3.29487 1.12072 3.10192 1.24964 2.9394 1.41216C2.77688 1.57468 2.64797 1.76762 2.56002 1.97997C2.47208 2.19231 2.42682 2.41991 2.42684 2.64974L2.42705 9.94134C2.42704 10.0563 2.44967 10.1701 2.49364 10.2762C2.53761 10.3824 2.60207 10.4789 2.68333 10.5601C2.76459 10.6414 2.86106 10.7059 2.96723 10.7498C3.07341 10.7938 3.1872 10.8164 3.30212 10.8164C3.53414 10.8164 3.75665 10.7242 3.92071 10.5601C4.08477 10.3961 4.17695 10.1736 4.17699 9.94155L4.17699 3.81623" stroke="#1E1E1E" stroke-width="0.8" stroke-linecap="round" stroke-linejoin="round"/>
</svg>
