<svg width="14" height="14" viewBox="0 0 14 14" fill="none" xmlns="http://www.w3.org/2000/svg">
<path d="M11.0833 5.83398C11.5474 5.83398 11.9925 6.01836 12.3207 6.34655C12.6489 6.67474 12.8333 7.11986 12.8333 7.58398V9.33398C12.8333 9.79811 12.6489 10.2432 12.3207 10.5714C11.9925 10.8996 11.5474 11.084 11.0833 11.084V11.6475C11.0833 12.2658 10.3623 12.6036 9.88746 12.2075L8.53879 11.084H6.99996C6.53583 11.084 6.09071 10.8996 5.76252 10.5714C5.43433 10.2432 5.24996 9.79811 5.24996 9.33398V7.58398C5.24996 7.11986 5.43433 6.67474 5.76252 6.34655C6.09071 6.01836 6.53583 5.83398 6.99996 5.83398H11.0833ZM9.33329 2.33398C9.79742 2.33398 10.2425 2.51836 10.5707 2.84655C10.8989 3.17474 11.0833 3.61986 11.0833 4.08398V4.66732H6.41663C5.79779 4.66732 5.20429 4.91315 4.76671 5.35073C4.32913 5.78832 4.08329 6.38181 4.08329 7.00065V9.33398C4.08329 9.94298 4.31663 10.4983 4.69929 10.9137L4.08329 11.3757C3.60263 11.7362 2.91663 11.3932 2.91663 10.7923V9.91732C2.4525 9.91732 2.00738 9.73294 1.67919 9.40475C1.351 9.07657 1.16663 8.63145 1.16663 8.16732V4.08398C1.16663 3.61986 1.351 3.17474 1.67919 2.84655C2.00738 2.51836 2.4525 2.33398 2.91663 2.33398H9.33329Z" fill="#686868"/>
</svg>
