<svg width="31" height="30" viewBox="0 0 31 30" fill="none" xmlns="http://www.w3.org/2000/svg">
<path d="M16.2407 29.073L16.227 29.0755L16.1382 29.1193L16.1132 29.1243L16.0957 29.1193L16.007 29.0755C15.9936 29.0714 15.9836 29.0734 15.977 29.0818L15.972 29.0943L15.9507 29.6293L15.957 29.6543L15.9695 29.6705L16.0995 29.763L16.1182 29.768L16.1332 29.763L16.2632 29.6705L16.2782 29.6505L16.2832 29.6293L16.262 29.0955C16.2586 29.0822 16.2516 29.0747 16.2407 29.073ZM16.572 28.9318L16.5557 28.9343L16.3245 29.0505L16.312 29.063L16.3082 29.0768L16.3307 29.6143L16.337 29.6293L16.347 29.638L16.5982 29.7543C16.6141 29.7584 16.6261 29.7551 16.6345 29.7443L16.6395 29.7268L16.597 28.9593C16.5928 28.9443 16.5845 28.9351 16.572 28.9318ZM15.6782 28.9343C15.6727 28.9309 15.6661 28.9299 15.6599 28.9313C15.6536 28.9327 15.6481 28.9364 15.6445 28.9418L15.637 28.9593L15.5945 29.7268C15.5953 29.7418 15.6024 29.7518 15.6157 29.7568L15.6345 29.7543L15.8857 29.638L15.8982 29.628L15.9032 29.6143L15.9245 29.0768L15.9207 29.0618L15.9082 29.0493L15.6782 28.9343Z" fill="#4D99FC"/>
<path d="M24.2496 12.5005C25.2442 12.5005 26.198 12.8956 26.9013 13.5988C27.6045 14.3021 27.9996 15.2559 27.9996 16.2505V20.0005C27.9996 20.995 27.6045 21.9489 26.9013 22.6521C26.198 23.3554 25.2442 23.7505 24.2496 23.7505V24.958C24.2496 26.283 22.7046 27.0067 21.6871 26.158L18.7971 23.7505H15.4996C14.5051 23.7505 13.5512 23.3554 12.848 22.6521C12.1447 21.9489 11.7496 20.995 11.7496 20.0005V16.2505C11.7496 15.2559 12.1447 14.3021 12.848 13.5988C13.5512 12.8956 14.5051 12.5005 15.4996 12.5005H24.2496ZM20.4996 5.00049C21.4942 5.00049 22.448 5.39558 23.1513 6.09884C23.8545 6.8021 24.2496 7.75593 24.2496 8.75049V10.0005H14.2496C12.9236 10.0005 11.6518 10.5273 10.7141 11.465C9.77642 12.4026 9.24963 13.6744 9.24963 15.0005V20.0005C9.24963 21.3055 9.74963 22.4955 10.5696 23.3855L9.24963 24.3755C8.21963 25.148 6.74963 24.413 6.74963 23.1255V21.2505C5.75507 21.2505 4.80124 20.8554 4.09798 20.1521C3.39472 19.4489 2.99963 18.495 2.99963 17.5005V8.75049C2.99963 7.75593 3.39472 6.8021 4.09798 6.09884C4.80124 5.39558 5.75507 5.00049 6.74963 5.00049H20.4996Z" fill="#4D99FC"/>
</svg>
