<svg width="15" height="14" viewBox="0 0 15 14" fill="none" xmlns="http://www.w3.org/2000/svg">
<g clip-path="url(#clip0_490_838)">
<path d="M13.5136 2.33336H11.958V3.50002C11.958 3.61238 11.9359 3.72363 11.8929 3.82743C11.8499 3.93123 11.7869 4.02555 11.7074 4.10499C11.628 4.18444 11.5337 4.24746 11.4299 4.29045C11.3261 4.33345 11.2148 4.35558 11.1025 4.35558C10.9901 4.35558 10.8788 4.33345 10.775 4.29045C10.6712 4.24746 10.5769 4.18444 10.4975 4.10499C10.418 4.02555 10.355 3.93123 10.312 3.82743C10.269 3.72363 10.2469 3.61238 10.2469 3.50002V2.33336H5.71634V3.50002C5.71634 3.72693 5.6262 3.94455 5.46575 4.10499C5.30531 4.26544 5.08769 4.35558 4.86078 4.35558C4.63388 4.35558 4.41626 4.26544 4.25581 4.10499C4.09537 3.94455 4.00523 3.72693 4.00523 3.50002V2.33336H2.44967C2.35713 2.3323 2.26531 2.34982 2.17965 2.38487C2.09399 2.41992 2.01623 2.47179 1.95097 2.53742C1.8857 2.60304 1.83426 2.68109 1.79969 2.76694C1.76511 2.85279 1.74811 2.94471 1.74967 3.03725V11.7406C1.74813 11.8315 1.76451 11.9218 1.79787 12.0064C1.83124 12.091 1.88094 12.1681 1.94414 12.2335C2.00734 12.2989 2.08279 12.3511 2.1662 12.3873C2.2496 12.4235 2.33932 12.443 2.43023 12.4445H13.5136C13.6045 12.443 13.6942 12.4235 13.7776 12.3873C13.861 12.3511 13.9365 12.2989 13.9996 12.2335C14.0628 12.1681 14.1125 12.091 14.1459 12.0064C14.1793 11.9218 14.1957 11.8315 14.1941 11.7406V3.03725C14.1957 2.94634 14.1793 2.85602 14.1459 2.77144C14.1125 2.68687 14.0628 2.60969 13.9996 2.54433C13.9365 2.47896 13.861 2.42669 13.7776 2.39049C13.6942 2.35429 13.6045 2.33488 13.5136 2.33336ZM4.86078 10.1111H4.08301V9.33336H4.86078V10.1111ZM4.86078 8.16669H4.08301V7.38891H4.86078V8.16669ZM4.86078 6.22225H4.08301V5.44447H4.86078V6.22225ZM7.19412 10.1111H6.41634V9.33336H7.19412V10.1111ZM7.19412 8.16669H6.41634V7.38891H7.19412V8.16669ZM7.19412 6.22225H6.41634V5.44447H7.19412V6.22225ZM9.52745 10.1111H8.74967V9.33336H9.52745V10.1111ZM9.52745 8.16669H8.74967V7.38891H9.52745V8.16669ZM9.52745 6.22225H8.74967V5.44447H9.52745V6.22225ZM11.8608 10.1111H11.083V9.33336H11.8608V10.1111ZM11.8608 8.16669H11.083V7.38891H11.8608V8.16669ZM11.8608 6.22225H11.083V5.44447H11.8608V6.22225Z" fill="#686868"/>
<path d="M4.86081 3.88888C4.96395 3.88888 5.06287 3.84791 5.1358 3.77498C5.20873 3.70205 5.2497 3.60313 5.2497 3.49999V1.16666C5.2497 1.06352 5.20873 0.964605 5.1358 0.891674C5.06287 0.818743 4.96395 0.777771 4.86081 0.777771C4.75767 0.777771 4.65876 0.818743 4.58583 0.891674C4.5129 0.964605 4.47192 1.06352 4.47192 1.16666V3.49999C4.47192 3.60313 4.5129 3.70205 4.58583 3.77498C4.65876 3.84791 4.75767 3.88888 4.86081 3.88888Z" fill="#686868"/>
<path d="M11.083 3.88888C11.1862 3.88888 11.2851 3.84791 11.358 3.77498C11.431 3.70205 11.4719 3.60313 11.4719 3.49999V1.16666C11.4719 1.06352 11.431 0.964605 11.358 0.891674C11.2851 0.818743 11.1862 0.777771 11.083 0.777771C10.9799 0.777771 10.881 0.818743 10.8081 0.891674C10.7351 0.964605 10.6942 1.06352 10.6942 1.16666V3.49999C10.6942 3.60313 10.7351 3.70205 10.8081 3.77498C10.881 3.84791 10.9799 3.88888 11.083 3.88888Z" fill="#686868"/>
</g>
<defs>
<clipPath id="clip0_490_838">
<rect width="14" height="14" fill="white" transform="translate(0.971924)"/>
</clipPath>
</defs>
</svg>
