<svg width="39" height="98" viewBox="0 0 39 98" fill="none" xmlns="http://www.w3.org/2000/svg">
<path d="M17.1367 0.16748C18.149 -0.27445 19.3286 0.188374 19.7705 1.20068C20.2118 2.21281 19.7493 3.39168 18.7373 3.8335C18.3978 3.9818 18.0559 4.24103 17.6533 4.64795C17.4527 4.85076 17.2567 5.06976 17.0371 5.31787C16.83 5.55198 16.5834 5.83307 16.3359 6.09033C16.003 6.43682 15.2723 7.50067 14.3027 9.2124C13.3731 10.8537 12.3182 12.9203 11.3301 15.1128C10.3407 17.3081 9.4318 19.5989 8.78223 21.6919C8.1202 23.8251 7.77768 25.5949 7.80273 26.8091C7.85904 29.5227 8.67717 32.2667 9.33008 35.2603C9.58014 36.4061 10.7064 38.6613 12.6357 41.5835C13.2155 42.4615 13.8552 43.3762 14.5381 44.312C14.6737 43.9621 14.8181 43.6031 14.9746 43.2368C15.7905 41.3272 16.714 39.497 17.7627 37.9419C18.8006 36.4029 20.0394 35.0159 21.5303 34.1313C22.7074 33.4331 24.7514 32.4558 27.1484 33.1401C29.9087 33.9283 34.2078 34.816 36.3105 38.9155C37.1403 40.5333 38.1545 42.7534 38.6396 45.0161C39.1131 47.2251 39.1799 49.9501 37.4727 52.1021C36.34 53.5297 35.0065 55.0578 33.5791 56.2007C32.2084 57.2981 30.3817 58.3395 28.3438 58.0874C26.7947 57.8957 24.6772 57.5715 22.585 56.8931C20.5158 56.2221 18.278 55.1447 16.6641 53.3247C16.6343 53.2911 16.6049 53.2568 16.5752 53.2231C16.5014 53.9566 16.4364 54.6934 16.3535 55.4585C15.933 59.3428 15.64 68.0717 15.752 73.5649C15.7967 75.7571 15.9388 77.9999 16.084 80.436C16.2283 82.859 16.3746 85.4522 16.4199 88.2749C16.4298 88.8879 16.42 89.4521 16.3975 89.9722C16.6409 89.6101 16.9108 89.1901 17.2148 88.6919C18.085 87.2663 19.2921 85.9187 20.374 84.7319L20.3984 84.7056L20.4229 84.6802C20.8678 84.2254 21.2906 83.8065 21.7354 83.3774L21.7441 83.3677L21.7539 83.3589C22.0227 83.1063 22.3073 82.8535 22.9629 82.3052C23.81 81.597 25.0706 81.7096 25.7793 82.5562C26.4879 83.4035 26.3756 84.6649 25.5283 85.3735C24.9108 85.89 24.6887 86.089 24.5 86.2661C24.0919 86.6601 23.7051 87.0454 23.2959 87.4634C22.1992 88.6671 21.2643 89.7365 20.6299 90.7759C19.5609 92.5272 18.7215 93.7094 17.668 94.6968C16.4942 95.7967 15.212 96.575 14.7949 96.8481C14.414 97.0976 13.9801 97.1976 13.5586 97.1675C13.1967 97.2254 12.8349 97.1985 12.5039 97.1069C11.9548 96.955 11.5107 96.6428 11.1885 96.3735C8.16998 93.8506 6.50169 91.667 5.36426 89.8325C4.81775 88.951 4.38097 88.1248 4.04297 87.5229C3.68933 86.8933 3.43045 86.4858 3.15918 86.1733C2.78973 85.7857 2.44542 85.4499 2.08496 85.1421C1.70648 84.8189 1.30032 84.5177 0.8125 84.1577C-0.0760823 83.5019 -0.264824 82.2496 0.390625 81.3608C1.04648 80.4721 2.29876 80.2832 3.1875 80.939C3.65595 81.2847 4.17797 81.6692 4.68262 82.1001C5.06609 82.4276 5.41991 82.7643 5.75977 83.1089L6.0957 83.4565L6.12207 83.4829L6.14648 83.5112C6.72112 84.1639 7.15372 84.8927 7.53125 85.5649C7.93127 86.2773 8.27811 86.9409 8.76367 87.7241C9.49043 88.8963 10.5043 90.2868 12.1934 91.9077C12.3372 91.0048 12.4444 89.8668 12.4199 88.3384C12.3761 85.6099 12.2349 83.0922 12.0908 80.6733C11.9475 78.2675 11.7996 75.9344 11.7529 73.646C11.6387 68.042 11.9325 59.133 12.377 55.0278C12.5725 53.2213 12.6762 51.3213 13.1299 49.0786C11.7097 47.2664 10.4078 45.4687 9.29785 43.7876C7.37435 40.8743 5.8476 38.064 5.42188 36.1128C4.85781 33.5266 3.87072 30.122 3.80371 26.8921C3.76505 25.0231 4.26293 22.7576 4.96191 20.5054C5.67362 18.2123 6.6484 15.764 7.68262 13.4692C8.71811 11.1717 9.82867 8.99492 10.8223 7.24072C11.7753 5.55825 12.7268 4.07301 13.4541 3.31689C13.6294 3.13465 13.8088 2.93007 14.042 2.6665C14.2627 2.41707 14.5232 2.12396 14.8096 1.83447C15.3818 1.25602 16.139 0.603162 17.1367 0.16748ZM26.0498 36.9858C25.2953 36.7706 24.4987 37.0217 23.5713 37.5718C22.7898 38.0355 21.9473 38.8909 21.0791 40.1782C20.2217 41.4497 19.4124 43.0317 18.6533 44.8081C18.1381 46.0139 17.7611 47.1001 17.4766 48.1079C18.182 48.9688 18.9106 49.8284 19.6572 50.6704C20.597 51.7301 22.0661 52.5192 23.8184 53.0874C25.5478 53.6482 27.3687 53.9362 28.835 54.1177C29.2271 54.1661 29.9526 53.9795 31.0791 53.0776C32.1491 52.2209 33.2594 50.9764 34.3389 49.6157C34.9286 48.8723 35.1136 47.6517 34.7285 45.855C34.3549 44.1121 33.5333 42.2642 32.752 40.7407C31.6002 38.4954 29.3726 37.9346 26.0498 36.9858Z" fill="#4E68F1"/>
</svg>
