<svg width="12" height="12" viewBox="0 0 12 12" fill="none" xmlns="http://www.w3.org/2000/svg">
<path d="M8.978 10.386L10.3205 5.636C10.3415 5.56159 10.345 5.48332 10.3307 5.40734C10.3164 5.33136 10.2846 5.25973 10.2379 5.1981C10.1912 5.13646 10.1309 5.08649 10.0616 5.05212C9.99236 5.01775 9.91607 4.99991 9.83875 5H6.96875C6.92761 5 6.88699 4.99072 6.84993 4.97285C6.81288 4.95497 6.78033 4.92897 6.75471 4.89677C6.7291 4.86457 6.71108 4.82701 6.70199 4.78688C6.69291 4.74675 6.693 4.70509 6.70225 4.665L6.82725 4.124C6.94175 3.62775 6.9785 3.1165 6.93625 2.609L6.91325 2.33325C6.88861 2.03742 6.75991 1.75991 6.55 1.55C6.35793 1.35805 6.09754 1.25015 5.826 1.25H5.766C5.60175 1.25 5.4505 1.339 5.371 1.4825L4.70625 2.67875C4.40827 3.21527 3.96403 3.65612 3.42525 3.95L1.7605 4.8575C1.68157 4.90057 1.61572 4.96412 1.56988 5.04147C1.52403 5.11881 1.49989 5.20709 1.5 5.297V10.25C1.5 10.3826 1.55268 10.5098 1.64645 10.6036C1.74022 10.6973 1.86739 10.75 2 10.75H8.49675C8.60562 10.75 8.71151 10.7144 8.79832 10.6487C8.88514 10.583 8.94839 10.4908 8.978 10.386Z" stroke="#686868" stroke-linecap="round" stroke-linejoin="round"/>
</svg>
