<svg width="89" height="89" viewBox="0 0 89 89" fill="none" xmlns="http://www.w3.org/2000/svg">
<circle cx="44.4915" cy="44.4915" r="44.4915" fill="#EDEDED"/>
<path d="M44.4915 0C35.5729 -1.06354e-07 26.86 2.68041 19.4836 7.69345C12.1071 12.7065 6.40753 19.8207 3.12435 28.1131C-0.15883 36.4055 -0.874048 45.4932 1.0715 54.1971C3.01705 62.9009 7.53355 70.8192 14.035 76.9245C20.5364 83.0297 28.7227 87.0401 37.5315 88.4353C46.3404 89.8305 55.3653 88.5461 63.4351 84.7487C71.505 80.9513 78.2473 74.8162 82.7873 67.1396C87.3272 59.4629 89.4553 50.599 88.8953 41.6979L44.4915 44.4915V0Z" fill="#213CE9"/>
<path d="M41.5886 57.043L37.5031 66.3115H35.1708L39.1343 57.4089H35.125V59.2077H33.2042V55.6405H41.5886V57.043ZM47.3249 59.6955C48.016 59.6955 48.6359 59.8327 49.1847 60.1071C49.7437 60.3815 50.1807 60.7677 50.4957 61.2657C50.8209 61.7636 50.9836 62.3378 50.9836 62.9883C50.9836 63.6793 50.8108 64.2891 50.4652 64.8176C50.1197 65.3461 49.6471 65.7576 49.0475 66.0524C48.4479 66.3369 47.7772 66.4792 47.0353 66.4792C45.5617 66.4792 44.4133 66.0219 43.5901 65.1072C42.7669 64.1824 42.3553 62.8714 42.3553 61.1742C42.3553 59.975 42.5738 58.9485 43.0108 58.0949C43.458 57.231 44.0779 56.5806 44.8706 56.1436C45.6735 55.6964 46.6034 55.4728 47.6603 55.4728C48.2091 55.4728 48.7325 55.5338 49.2305 55.6558C49.7284 55.7777 50.1604 55.9505 50.5262 56.1741L49.7183 57.7595C49.1898 57.4139 48.5191 57.2412 47.706 57.2412C46.8625 57.2412 46.1664 57.4698 45.6176 57.9272C45.0789 58.3743 44.7436 59.0349 44.6114 59.9089C44.5606 60.2545 44.5403 60.5797 44.5505 60.8846C44.835 60.4984 45.2161 60.2036 45.6938 60.0004C46.1714 59.7971 46.7152 59.6955 47.3249 59.6955ZM46.9133 64.8481C47.5028 64.8481 47.9804 64.6905 48.3463 64.3755C48.7122 64.0503 48.8951 63.6184 48.8951 63.0797C48.8951 62.5411 48.7122 62.1143 48.3463 61.7992C47.9804 61.474 47.4875 61.3114 46.8676 61.3114C46.268 61.3114 45.7751 61.4791 45.3889 61.8145C45.0027 62.1498 44.8096 62.5767 44.8096 63.095C44.8096 63.6031 44.9976 64.0249 45.3737 64.3603C45.7497 64.6855 46.2629 64.8481 46.9133 64.8481Z" fill="white"/>
<path d="M55.2974 58.5937C55.0012 58.5937 54.737 58.5211 54.5047 58.3759C54.2782 58.2307 54.0982 58.0246 53.9646 57.7574C53.8369 57.4903 53.773 57.1796 53.773 56.8253C53.773 56.4711 53.8369 56.1604 53.9646 55.8933C54.0982 55.6261 54.2782 55.42 54.5047 55.2748C54.737 55.1296 55.0012 55.057 55.2974 55.057C55.5936 55.057 55.8549 55.1296 56.0814 55.2748C56.3137 55.42 56.4937 55.6261 56.6215 55.8933C56.755 56.1604 56.8218 56.4711 56.8218 56.8253C56.8218 57.1796 56.755 57.4903 56.6215 57.7574C56.4937 58.0246 56.3137 58.2307 56.0814 58.3759C55.8549 58.5211 55.5936 58.5937 55.2974 58.5937ZM59.9317 55.1093L55.611 61.4161H54.6876L59.0083 55.1093H59.9317ZM55.2974 57.9055C55.5297 57.9055 55.7126 57.8126 55.8462 57.6268C55.9798 57.4409 56.0465 57.1738 56.0465 56.8253C56.0465 56.4769 55.9798 56.2098 55.8462 56.0239C55.7126 55.8381 55.5297 55.7452 55.2974 55.7452C55.0709 55.7452 54.888 55.841 54.7486 56.0326C54.615 56.2185 54.5483 56.4827 54.5483 56.8253C54.5483 57.168 54.615 57.4351 54.7486 57.6268C54.888 57.8126 55.0709 57.9055 55.2974 57.9055ZM59.3219 61.4596C59.0315 61.4596 58.7702 61.387 58.5379 61.2418C58.3114 61.0967 58.1314 60.8905 57.9978 60.6234C57.8701 60.3504 57.8062 60.0397 57.8062 59.6913C57.8062 59.3428 57.8701 59.035 57.9978 58.7679C58.1314 58.5008 58.3114 58.2946 58.5379 58.1494C58.7702 57.9984 59.0315 57.9229 59.3219 57.9229C59.6181 57.9229 59.8823 57.9955 60.1146 58.1407C60.3469 58.2859 60.5269 58.495 60.6547 58.7679C60.7882 59.035 60.855 59.3428 60.855 59.6913C60.855 60.0397 60.7882 60.3504 60.6547 60.6234C60.5269 60.8905 60.3469 61.0967 60.1146 61.2418C59.8823 61.387 59.6181 61.4596 59.3219 61.4596ZM59.3219 60.7714C59.5484 60.7714 59.7284 60.6785 59.862 60.4927C60.0014 60.301 60.071 60.0339 60.071 59.6913C60.071 59.3486 60.0014 59.0844 59.862 58.8986C59.7284 58.7127 59.5484 58.6198 59.3219 58.6198C59.0954 58.6198 58.9154 58.7127 58.7818 58.8986C58.6482 59.0844 58.5815 59.3486 58.5815 59.6913C58.5815 60.0397 58.6482 60.3069 58.7818 60.4927C58.9154 60.6785 59.0954 60.7714 59.3219 60.7714Z" fill="white"/>
</svg>
