<svg width="14" height="14" viewBox="0 0 14 14" fill="none" xmlns="http://www.w3.org/2000/svg">
<path d="M6.99996 9.91602C7.16524 9.91602 7.30388 9.86001 7.41588 9.74802C7.52788 9.63601 7.58368 9.49757 7.58329 9.33268V6.99935C7.58329 6.83407 7.52729 6.69563 7.41529 6.58402C7.30329 6.4724 7.16485 6.4164 6.99996 6.41602C6.83507 6.41563 6.69663 6.47163 6.58463 6.58402C6.47263 6.6964 6.41663 6.83485 6.41663 6.99935V9.33268C6.41663 9.49796 6.47263 9.6366 6.58463 9.7486C6.69663 9.8606 6.83507 9.9164 6.99996 9.91602ZM6.99996 5.24935C7.16524 5.24935 7.30388 5.19335 7.41588 5.08135C7.52788 4.96935 7.58368 4.8309 7.58329 4.66602C7.5829 4.50113 7.5269 4.36268 7.41529 4.25068C7.30368 4.13868 7.16524 4.08268 6.99996 4.08268C6.83468 4.08268 6.69624 4.13868 6.58463 4.25068C6.47302 4.36268 6.41702 4.50113 6.41663 4.66602C6.41624 4.8309 6.47224 4.96954 6.58463 5.08193C6.69702 5.19432 6.83546 5.25013 6.99996 5.24935ZM6.99996 12.8327C6.19302 12.8327 5.43468 12.6795 4.72496 12.373C4.01524 12.0666 3.39788 11.651 2.87288 11.1264C2.34788 10.6018 1.93235 9.98446 1.62629 9.27435C1.32024 8.56424 1.16702 7.8059 1.16663 6.99935C1.16624 6.19279 1.31946 5.43446 1.62629 4.72435C1.93313 4.01424 2.34865 3.39688 2.87288 2.87227C3.3971 2.34765 4.01446 1.93213 4.72496 1.62568C5.43546 1.31924 6.19379 1.16602 6.99996 1.16602C7.80613 1.16602 8.56446 1.31924 9.27496 1.62568C9.98546 1.93213 10.6028 2.34765 11.127 2.87227C11.6513 3.39688 12.067 4.01424 12.3742 4.72435C12.6814 5.43446 12.8345 6.19279 12.8333 6.99935C12.8321 7.8059 12.6789 8.56424 12.3736 9.27435C12.0683 9.98446 11.6528 10.6018 11.127 11.1264C10.6013 11.651 9.9839 12.0668 9.27496 12.3736C8.56601 12.6804 7.80768 12.8335 6.99996 12.8327ZM6.99996 11.666C8.30274 11.666 9.40621 11.2139 10.3104 10.3098C11.2145 9.4056 11.6666 8.30213 11.6666 6.99935C11.6666 5.69657 11.2145 4.5931 10.3104 3.68893C9.40621 2.78477 8.30274 2.33268 6.99996 2.33268C5.69718 2.33268 4.59371 2.78477 3.68954 3.68893C2.78538 4.5931 2.33329 5.69657 2.33329 6.99935C2.33329 8.30213 2.78538 9.4056 3.68954 10.3098C4.59371 11.2139 5.69718 11.666 6.99996 11.666Z" fill="#B2B2B2"/>
</svg>
