<svg width="139" height="55" viewBox="0 0 139 55" fill="none" xmlns="http://www.w3.org/2000/svg">
<path d="M32.8112 39H28.0112L17.7779 26V39H12.0445V15.6667H16.8445L27.0779 28.6667V15.6667H32.8112V39ZM47.6246 39.4333C45.2913 39.4333 43.1913 38.9111 41.3246 37.8667C39.4579 36.8222 37.9913 35.3778 36.9246 33.5333C35.8802 31.6889 35.3579 29.6222 35.3579 27.3333C35.3579 25.0444 35.8802 22.9778 36.9246 21.1333C37.9913 19.2889 39.4579 17.8444 41.3246 16.8C43.1913 15.7556 45.2913 15.2333 47.6246 15.2333C49.9357 15.2333 52.0246 15.7556 53.8913 16.8C55.7579 17.8444 57.2135 19.2889 58.2579 21.1333C59.3246 22.9556 59.8579 25.0222 59.8579 27.3333C59.8579 29.6444 59.3246 31.7222 58.2579 33.5667C57.2135 35.3889 55.7579 36.8222 53.8913 37.8667C52.0246 38.9111 49.9357 39.4333 47.6246 39.4333ZM47.6246 34.2667C48.8246 34.2667 49.9024 33.9778 50.8579 33.4C51.8357 32.8222 52.6024 32.0111 53.1579 30.9667C53.7135 29.9 53.9913 28.6889 53.9913 27.3333C53.9913 25.9778 53.7135 24.7778 53.1579 23.7333C52.6024 22.6667 51.8357 21.8444 50.8579 21.2667C49.9024 20.6889 48.8246 20.4 47.6246 20.4C46.4024 20.4 45.3024 20.6889 44.3246 21.2667C43.3691 21.8444 42.6135 22.6667 42.0579 23.7333C41.5246 24.7778 41.2579 25.9778 41.2579 27.3333C41.2579 28.6889 41.5246 29.9 42.0579 30.9667C42.6135 32.0111 43.3691 32.8222 44.3246 33.4C45.3024 33.9778 46.4024 34.2667 47.6246 34.2667ZM73.2099 39.4333C70.921 39.4333 68.8543 38.9222 67.0099 37.9C65.1655 36.8556 63.721 35.4111 62.6766 33.5667C61.6321 31.7222 61.1099 29.6444 61.1099 27.3333C61.1099 25.0222 61.6321 22.9444 62.6766 21.1C63.7432 19.2556 65.1988 17.8222 67.0432 16.8C68.8877 15.7556 70.9543 15.2333 73.2432 15.2333C75.221 15.2333 77.0099 15.6 78.6099 16.3333C80.2099 17.0667 81.5432 18.1333 82.6099 19.5333L78.8766 23.1333C77.4321 21.3111 75.6543 20.4 73.5432 20.4C72.2766 20.4 71.1432 20.6889 70.1432 21.2667C69.1655 21.8444 68.3988 22.6667 67.8432 23.7333C67.2877 24.7778 67.0099 25.9778 67.0099 27.3333C67.0099 28.6889 67.2877 29.9 67.8432 30.9667C68.3988 32.0111 69.1655 32.8222 70.1432 33.4C71.1432 33.9778 72.2766 34.2667 73.5432 34.2667C75.6988 34.2667 77.4766 33.3444 78.8766 31.5L82.6099 35.1C81.5432 36.5 80.2099 37.5778 78.6099 38.3333C77.0099 39.0667 75.2099 39.4333 73.2099 39.4333ZM89.6382 34.3L87.8382 39H81.9048L91.7382 15.6667H97.4715L107.305 39H101.238L99.4382 34.3H89.6382ZM94.5382 21.6L91.4715 29.7H97.6048L94.5382 21.6ZM118.381 15.6667C120.359 15.6667 122.081 16.0222 123.547 16.7333C125.014 17.4222 126.147 18.4111 126.947 19.7C127.747 20.9889 128.147 22.5111 128.147 24.2667C128.147 26 127.747 27.5111 126.947 28.8C126.147 30.0889 125.014 31.0778 123.547 31.7667C122.081 32.4556 120.359 32.8 118.381 32.8H114.281V39H108.481V15.6667H118.381ZM118.014 27.8667C119.414 27.8667 120.47 27.5556 121.181 26.9333C121.914 26.2889 122.281 25.4 122.281 24.2667C122.281 23.0889 121.914 22.1889 121.181 21.5667C120.47 20.9222 119.414 20.6 118.014 20.6H114.281V27.8667H118.014Z" fill="white"/>
</svg>
