<svg width="119" height="25" viewBox="0 0 119 25" fill="none" xmlns="http://www.w3.org/2000/svg">
<path d="M21.9561 24H17.1097L6.77733 10.8742V24H0.988509V0.440859H5.83496L16.1673 13.5667V0.440859H21.9561V24ZM36.9129 24.4375C34.557 24.4375 32.4367 23.9103 30.5519 22.8557C28.6672 21.8011 27.1864 20.3427 26.1094 18.4804C25.0548 16.6181 24.5275 14.5315 24.5275 12.2204C24.5275 9.90939 25.0548 7.82272 26.1094 5.96043C27.1864 4.09814 28.6672 2.63971 30.5519 1.58516C32.4367 0.530608 34.557 0.00333161 36.9129 0.00333161C39.2464 0.00333161 41.3555 0.530608 43.2402 1.58516C45.125 2.63971 46.5946 4.09814 47.6491 5.96043C48.7261 7.80029 49.2646 9.88695 49.2646 12.2204C49.2646 14.5539 48.7261 16.6518 47.6491 18.5141C46.5946 20.3539 45.125 21.8011 43.2402 22.8557C41.3555 23.9103 39.2464 24.4375 36.9129 24.4375ZM36.9129 19.2209C38.1245 19.2209 39.2127 18.9292 40.1775 18.3458C41.1648 17.7624 41.9389 16.9435 42.4998 15.8889C43.0607 14.8119 43.3412 13.5891 43.3412 12.2204C43.3412 10.8518 43.0607 9.64014 42.4998 8.58559C41.9389 7.5086 41.1648 6.67842 40.1775 6.09505C39.2127 5.51168 38.1245 5.22 36.9129 5.22C35.6789 5.22 34.5682 5.51168 33.581 6.09505C32.6162 6.67842 31.8533 7.5086 31.2924 8.58559C30.7539 9.64014 30.4846 10.8518 30.4846 12.2204C30.4846 13.5891 30.7539 14.8119 31.2924 15.8889C31.8533 16.9435 32.6162 17.7624 33.581 18.3458C34.5682 18.9292 35.6789 19.2209 36.9129 19.2209ZM62.7458 24.4375C60.4348 24.4375 58.3481 23.9215 56.4858 22.8894C54.6235 21.8348 53.1651 20.3764 52.1105 18.5141C51.056 16.6518 50.5287 14.5539 50.5287 12.2204C50.5287 9.88695 51.056 7.78907 52.1105 5.92677C53.1875 4.06448 54.6572 2.61728 56.5195 1.58516C58.3817 0.530608 60.4684 0.00333161 62.7795 0.00333161C64.7764 0.00333161 66.5826 0.373547 68.1981 1.11398C69.8135 1.85441 71.1598 2.9314 72.2368 4.34495L68.4673 7.97978C67.0089 6.13993 65.2139 5.22 63.0824 5.22C61.8034 5.22 60.6591 5.51168 59.6495 6.09505C58.6622 6.67842 57.8881 7.5086 57.3272 8.58559C56.7663 9.64014 56.4858 10.8518 56.4858 12.2204C56.4858 13.5891 56.7663 14.8119 57.3272 15.8889C57.8881 16.9435 58.6622 17.7624 59.6495 18.3458C60.6591 18.9292 61.8034 19.2209 63.0824 19.2209C65.2588 19.2209 67.0538 18.2897 68.4673 16.4274L72.2368 20.0623C71.1598 21.4758 69.8135 22.564 68.1981 23.3269C66.5826 24.0673 64.7652 24.4375 62.7458 24.4375ZM79.333 19.2545L77.5156 24H71.5249L81.4534 0.440859H87.2422L97.1707 24H91.0453L89.2279 19.2545H79.333ZM84.2805 6.43161L81.1841 14.61H87.3768L84.2805 6.43161ZM108.354 0.440859C110.351 0.440859 112.09 0.799856 113.57 1.51785C115.051 2.2134 116.196 3.21186 117.003 4.51322C117.811 5.81459 118.215 7.35154 118.215 9.12409C118.215 10.8742 117.811 12.3999 117.003 13.7013C116.196 15.0027 115.051 16.0011 113.57 16.6967C112.09 17.3922 110.351 17.74 108.354 17.74H104.214V24H98.358V0.440859H108.354ZM107.984 12.7589C109.397 12.7589 110.463 12.4448 111.181 11.8166C111.921 11.1659 112.292 10.2684 112.292 9.12409C112.292 7.93491 111.921 7.0262 111.181 6.39796C110.463 5.74728 109.397 5.42193 107.984 5.42193H104.214V12.7589H107.984Z" fill="#213CE9"/>
</svg>
