<svg width="38" height="38" viewBox="0 0 38 38" fill="none" xmlns="http://www.w3.org/2000/svg">
<path d="M18.5477 11.0859C18.9963 11.0859 19.3726 11.2379 19.6766 11.5419C19.9806 11.8459 20.1321 12.2217 20.131 12.6693V19.0026C20.131 19.4512 19.979 19.827 19.675 20.1299C19.371 20.4329 18.9952 20.5849 18.5477 20.5859C18.1001 20.587 17.7244 20.435 17.4204 20.1299C17.1164 19.8249 16.9644 19.4491 16.9644 19.0026V12.6693C16.9644 12.2207 17.1164 11.8444 17.4204 11.5404C17.7244 11.2364 18.1001 11.0849 18.5477 11.0859ZM18.5477 23.7526C18.9963 23.7526 19.3726 23.9046 19.6766 24.2086C19.9806 24.5126 20.1321 24.8884 20.131 25.3359C20.13 25.7835 19.978 26.1593 19.675 26.4633C19.3721 26.7673 18.9963 26.9193 18.5477 26.9193C18.0991 26.9193 17.7233 26.7673 17.4204 26.4633C17.1174 26.1593 16.9654 25.7835 16.9644 25.3359C16.9633 24.8884 17.1153 24.5121 17.4204 24.207C17.7254 23.902 18.1012 23.7505 18.5477 23.7526ZM18.5477 3.16927C16.3574 3.16927 14.2991 3.58516 12.3727 4.41694C10.4463 5.24871 8.77061 6.37658 7.34561 7.80052C5.92061 9.22446 4.79275 10.9002 3.96202 12.8276C3.1313 14.755 2.71541 16.8134 2.71436 19.0026C2.7133 21.1918 3.12919 23.2502 3.96202 25.1776C4.79486 27.105 5.92272 28.7807 7.34561 30.2047C8.7685 31.6286 10.4442 32.7565 12.3727 33.5883C14.3012 34.42 16.3595 34.8359 18.5477 34.8359C20.7359 34.8359 22.7942 34.42 24.7227 33.5883C26.6512 32.7565 28.3269 31.6286 29.7498 30.2047C31.1727 28.7807 32.301 27.105 33.1349 25.1776C33.9688 23.2502 34.3842 21.1918 34.381 19.0026C34.3779 16.8134 33.962 14.755 33.1334 12.8276C32.3047 10.9002 31.1769 9.22446 29.7498 7.80052C28.3227 6.37658 26.647 5.24819 24.7227 4.41536C22.7984 3.58252 20.7401 3.16716 18.5477 3.16927ZM18.5477 6.33594C22.0838 6.33594 25.0789 7.56302 27.5331 10.0172C29.9873 12.4714 31.2144 15.4665 31.2144 19.0026C31.2144 22.5387 29.9873 25.5339 27.5331 27.988C25.0789 30.4422 22.0838 31.6693 18.5477 31.6693C15.0116 31.6693 12.0164 30.4422 9.56227 27.988C7.10811 25.5339 5.88102 22.5387 5.88102 19.0026C5.88102 15.4665 7.10811 12.4714 9.56227 10.0172C12.0164 7.56302 15.0116 6.33594 18.5477 6.33594Z" fill="#DBDBDB"/>
</svg>
