<svg width="14" height="15" viewBox="0 0 14 15" fill="none" xmlns="http://www.w3.org/2000/svg">
<path d="M3.5 8.58789C3.98325 8.58789 4.375 8.19614 4.375 7.71289C4.375 7.22964 3.98325 6.83789 3.5 6.83789C3.01675 6.83789 2.625 7.22964 2.625 7.71289C2.625 8.19614 3.01675 8.58789 3.5 8.58789Z" fill="black"/>
<path d="M7 8.58789C7.48325 8.58789 7.875 8.19614 7.875 7.71289C7.875 7.22964 7.48325 6.83789 7 6.83789C6.51675 6.83789 6.125 7.22964 6.125 7.71289C6.125 8.19614 6.51675 8.58789 7 8.58789Z" fill="black"/>
<path d="M10.5 8.58789C10.9832 8.58789 11.375 8.19614 11.375 7.71289C11.375 7.22964 10.9832 6.83789 10.5 6.83789C10.0168 6.83789 9.625 7.22964 9.625 7.71289C9.625 8.19614 10.0168 8.58789 10.5 8.58789Z" fill="black"/>
</svg>
