<svg width="16" height="16" viewBox="0 0 16 16" fill="none" xmlns="http://www.w3.org/2000/svg">
<path d="M3.33333 14C2.96667 14 2.65289 13.8696 2.392 13.6087C2.13111 13.3478 2.00044 13.0338 2 12.6667V3.33333C2 2.96667 2.13067 2.65289 2.392 2.392C2.65333 2.13111 2.96711 2.00044 3.33333 2H10.6667L14 5.33333V12.6667C14 13.0333 13.8696 13.3473 13.6087 13.6087C13.3478 13.87 13.0338 14.0004 12.6667 14H3.33333ZM4.66667 11.3333H11.3333V10H4.66667V11.3333ZM4.66667 8.66667H11.3333V7.33333H4.66667V8.66667ZM10 6H12.6667L10 3.33333V6ZM4.66667 6H8V4.66667H4.66667V6Z" fill="#686868"/>
</svg>
