<svg width="106" height="43" viewBox="0 0 106 43" fill="none" xmlns="http://www.w3.org/2000/svg">
<path d="M25.4834 30.25H21.8834L14.2084 20.5V30.25H9.9084V12.75H13.5084L21.1834 22.5V12.75H25.4834V30.25ZM36.5935 30.575C34.8435 30.575 33.2685 30.1833 31.8685 29.4C30.4685 28.6167 29.3685 27.5333 28.5685 26.15C27.7851 24.7667 27.3935 23.2167 27.3935 21.5C27.3935 19.7833 27.7851 18.2333 28.5685 16.85C29.3685 15.4667 30.4685 14.3833 31.8685 13.6C33.2685 12.8167 34.8435 12.425 36.5935 12.425C38.3268 12.425 39.8935 12.8167 41.2935 13.6C42.6935 14.3833 43.7851 15.4667 44.5685 16.85C45.3685 18.2167 45.7685 19.7667 45.7685 21.5C45.7685 23.2333 45.3685 24.7917 44.5685 26.175C43.7851 27.5417 42.6935 28.6167 41.2935 29.4C39.8935 30.1833 38.3268 30.575 36.5935 30.575ZM36.5935 26.7C37.4935 26.7 38.3018 26.4833 39.0185 26.05C39.7518 25.6167 40.3268 25.0083 40.7435 24.225C41.1601 23.425 41.3685 22.5167 41.3685 21.5C41.3685 20.4833 41.1601 19.5833 40.7435 18.8C40.3268 18 39.7518 17.3833 39.0185 16.95C38.3018 16.5167 37.4935 16.3 36.5935 16.3C35.6768 16.3 34.8518 16.5167 34.1185 16.95C33.4018 17.3833 32.8351 18 32.4185 18.8C32.0185 19.5833 31.8185 20.4833 31.8185 21.5C31.8185 22.5167 32.0185 23.425 32.4185 24.225C32.8351 25.0083 33.4018 25.6167 34.1185 26.05C34.8518 26.4833 35.6768 26.7 36.5935 26.7Z" fill="black"/>
<path d="M55.7824 30.575C54.0658 30.575 52.5158 30.1917 51.1324 29.425C49.7491 28.6417 48.6658 27.5583 47.8824 26.175C47.0991 24.7917 46.7074 23.2333 46.7074 21.5C46.7074 19.7667 47.0991 18.2083 47.8824 16.825C48.6824 15.4417 49.7741 14.3667 51.1574 13.6C52.5408 12.8167 54.0908 12.425 55.8074 12.425C57.2908 12.425 58.6324 12.7 59.8324 13.25C61.0324 13.8 62.0324 14.6 62.8324 15.65L60.0324 18.35C58.9491 16.9833 57.6158 16.3 56.0324 16.3C55.0824 16.3 54.2324 16.5167 53.4824 16.95C52.7491 17.3833 52.1741 18 51.7574 18.8C51.3408 19.5833 51.1324 20.4833 51.1324 21.5C51.1324 22.5167 51.3408 23.425 51.7574 24.225C52.1741 25.0083 52.7491 25.6167 53.4824 26.05C54.2324 26.4833 55.0824 26.7 56.0324 26.7C57.6491 26.7 58.9824 26.0083 60.0324 24.625L62.8324 27.325C62.0324 28.375 61.0324 29.1833 59.8324 29.75C58.6324 30.3 57.2824 30.575 55.7824 30.575ZM68.1036 26.725L66.7536 30.25H62.3036L69.6786 12.75H73.9786L81.3536 30.25H76.8036L75.4536 26.725H68.1036ZM71.7786 17.2L69.4786 23.275H74.0786L71.7786 17.2ZM89.6605 12.75C91.1439 12.75 92.4355 13.0167 93.5355 13.55C94.6355 14.0667 95.4855 14.8083 96.0855 15.775C96.6855 16.7417 96.9855 17.8833 96.9855 19.2C96.9855 20.5 96.6855 21.6333 96.0855 22.6C95.4855 23.5667 94.6355 24.3083 93.5355 24.825C92.4355 25.3417 91.1439 25.6 89.6605 25.6H86.5855V30.25H82.2355V12.75H89.6605ZM89.3855 21.9C90.4355 21.9 91.2272 21.6667 91.7605 21.2C92.3105 20.7167 92.5855 20.05 92.5855 19.2C92.5855 18.3167 92.3105 17.6417 91.7605 17.175C91.2272 16.6917 90.4355 16.45 89.3855 16.45H86.5855V21.9H89.3855Z" fill="#213CE9"/>
</svg>
