<svg width="20" height="20" viewBox="0 0 20 20" fill="none" xmlns="http://www.w3.org/2000/svg">
<path d="M10.4942 19.382L10.485 19.3837L10.4259 19.4129L10.4092 19.4162L10.3975 19.4129L10.3384 19.3837C10.3295 19.3809 10.3228 19.3823 10.3184 19.3879L10.315 19.3962L10.3009 19.7529L10.305 19.7695L10.3134 19.7804L10.4 19.842L10.4125 19.8454L10.4225 19.842L10.5092 19.7804L10.5192 19.767L10.5225 19.7529L10.5084 19.397C10.5061 19.3881 10.5014 19.3831 10.4942 19.382ZM10.715 19.2879L10.7042 19.2895L10.55 19.367L10.5417 19.3754L10.5392 19.3845L10.5542 19.7429L10.5584 19.7529L10.565 19.7587L10.7325 19.8362C10.7431 19.839 10.7511 19.8367 10.7567 19.8295L10.76 19.8179L10.7317 19.3062C10.7289 19.2962 10.7234 19.2901 10.715 19.2879ZM10.1192 19.2895C10.1155 19.2873 10.1111 19.2866 10.1069 19.2875C10.1027 19.2884 10.0991 19.291 10.0967 19.2945L10.0917 19.3062L10.0634 19.8179C10.0639 19.8279 10.0686 19.8345 10.0775 19.8379L10.09 19.8362L10.2575 19.7587L10.2659 19.752L10.2692 19.7429L10.2834 19.3845L10.2809 19.3745L10.2725 19.3662L10.1192 19.2895Z" fill="#C4C4C4"/>
<path d="M13.3626 2.51272C13.8113 2.06389 14.4139 1.80252 15.0483 1.78163C15.6826 1.76074 16.3011 1.98189 16.7784 2.40022L16.8984 2.51272L17.4876 3.10189C17.9362 3.55058 18.1974 4.15304 18.2183 4.78717C18.2392 5.4213 18.0182 6.03965 17.6001 6.51689L17.4876 6.63689L8.14423 15.9811C8.01212 16.1132 7.85209 16.214 7.67589 16.2761L7.54089 16.3152L3.82923 17.1719C3.69918 17.2021 3.56376 17.2007 3.43439 17.1677C3.30501 17.1347 3.18547 17.071 3.08581 16.9822C2.98616 16.8933 2.90933 16.7818 2.86177 16.657C2.81422 16.5322 2.79734 16.3979 2.81256 16.2652L2.82923 16.1711L3.68506 12.4586C3.72734 12.2765 3.80992 12.1062 3.92673 11.9602L4.01923 11.8561L13.3626 2.51272ZM12.7734 5.45856L5.28173 12.9502L4.75173 15.2486L7.05006 14.7177L14.5417 7.22606L12.7734 5.45856ZM15.7201 3.69106C15.5766 3.54758 15.3856 3.46138 15.1831 3.44865C14.9806 3.43592 14.7804 3.49751 14.6201 3.62189L14.5417 3.69106L13.9517 4.28022L15.7201 6.04772L16.3092 5.45856C16.4527 5.31506 16.5389 5.12415 16.5516 4.92162C16.5644 4.7191 16.5028 4.51889 16.3784 4.35856L16.3092 4.28022L15.7201 3.69106Z" fill="#C4C4C4"/>
</svg>
