<svg width="26" height="26" viewBox="0 0 26 26" fill="none" xmlns="http://www.w3.org/2000/svg">
<circle cx="13" cy="13" r="13" fill="url(#paint0_linear_974_2287)" fill-opacity="0.5"/>
<path d="M12.8945 5C13.3304 5 13.6834 5.35324 13.6836 5.78906V12.1055H20C20.4359 12.1056 20.7891 12.4586 20.7891 12.8945C20.7891 13.3305 20.4359 13.6835 20 13.6836H13.6836V20C13.6835 20.4359 13.3305 20.7891 12.8945 20.7891C12.4586 20.7891 12.1056 20.4359 12.1055 20V13.6836H5.78906C5.35324 13.6834 5 13.3304 5 12.8945C5 12.4587 5.35324 12.1057 5.78906 12.1055H12.1055V5.78906C12.1057 5.35324 12.4587 5 12.8945 5Z" fill="white"/>
<defs>
<linearGradient id="paint0_linear_974_2287" x1="13" y1="0" x2="13" y2="26" gradientUnits="userSpaceOnUse">
<stop stop-color="#DEE3FF"/>
<stop offset="1" stop-color="#213CE9"/>
</linearGradient>
</defs>
</svg>
