<svg width="33" height="37" viewBox="0 0 33 37" fill="none" xmlns="http://www.w3.org/2000/svg">
<path d="M16.7023 15.6319C15.7474 15.6319 14.93 15.292 14.25 14.612C13.57 13.932 13.23 13.1146 13.23 12.1597C13.23 11.2049 13.57 10.3874 14.25 9.70747C14.93 9.02749 15.7474 8.6875 16.7023 8.6875C17.6571 8.6875 18.4745 9.02749 19.1545 9.70747C19.8345 10.3874 20.1745 11.2049 20.1745 12.1597C20.1745 13.1146 19.8345 13.932 19.1545 14.612C18.4745 15.292 17.6571 15.6319 16.7023 15.6319ZM9.75781 20.8403V20.1458C9.75781 19.6539 9.88455 19.202 10.138 18.7899C10.3915 18.3779 10.7277 18.0631 11.1467 17.8455C12.0437 17.397 12.9552 17.0608 13.8811 16.8368C14.807 16.6128 15.7474 16.5006 16.7023 16.5C17.6571 16.4994 18.5975 16.6117 19.5234 16.8368C20.4494 17.0619 21.3608 17.3981 22.2578 17.8455C22.6774 18.0625 23.0139 18.3773 23.2674 18.7899C23.5208 19.2025 23.6473 19.6545 23.6467 20.1458V20.8403C23.6467 21.3177 23.4769 21.7266 23.1372 22.0668C22.7975 22.4071 22.3886 22.577 21.9106 22.5764H11.4939C11.0165 22.5764 10.6079 22.4065 10.2682 22.0668C9.92853 21.7271 9.75839 21.3183 9.75781 20.8403Z" fill="#3F72E6"/>
<path d="M16.7792 0.453125C25.5333 0.453125 32.6305 7.54964 32.6307 16.3037L32.6259 16.7129C32.5086 21.3451 30.4031 25.4827 27.1317 28.3066L31.6493 34.3633C32.1726 35.0649 32.0286 36.0576 31.327 36.5811C30.6254 37.1045 29.6318 36.9604 29.1083 36.2588L24.536 30.1299C22.2429 31.4191 19.5971 32.1553 16.7792 32.1553L16.37 32.1504C7.80503 31.9332 0.928589 24.921 0.928589 16.3037C0.928808 7.54977 8.02524 0.453345 16.7792 0.453125ZM16.7792 3.62305C9.77609 3.62327 4.09873 9.30062 4.09851 16.3037C4.09851 23.307 9.77595 28.9851 16.7792 28.9854C23.7826 28.9854 29.4608 23.3071 29.4608 16.3037C29.4606 9.30049 23.7824 3.62305 16.7792 3.62305Z" fill="#3F72E6"/>
</svg>
