<svg width="29" height="33" viewBox="0 0 29 33" fill="none" xmlns="http://www.w3.org/2000/svg">
<path d="M25.3958 28.8958L27.5833 31.0833M17.375 25.25C17.375 26.4103 17.8359 27.5231 18.6564 28.3436C19.4769 29.1641 20.5897 29.625 21.75 29.625C22.9103 29.625 24.0231 29.1641 24.8436 28.3436C25.6641 27.5231 26.125 26.4103 26.125 25.25C26.125 24.0897 25.6641 22.9769 24.8436 22.1564C24.0231 21.3359 22.9103 20.875 21.75 20.875C20.5897 20.875 19.4769 21.3359 18.6564 22.1564C17.8359 22.9769 17.375 24.0897 17.375 25.25Z" stroke="#1E1E1E" stroke-width="2.5" stroke-linecap="round" stroke-linejoin="round"/>
<path d="M24.6666 16.5001V7.38404C24.6667 7.26893 24.6441 7.15492 24.6 7.04857C24.556 6.94221 24.4914 6.84559 24.4099 6.76425L19.8191 2.17341C19.6551 2.00927 19.4327 1.91695 19.2008 1.91675H2.20825C1.97619 1.91675 1.75363 2.00894 1.58953 2.17303C1.42544 2.33712 1.33325 2.55968 1.33325 2.79175V30.2084C1.33325 30.4405 1.42544 30.663 1.58953 30.8271C1.75363 30.9912 1.97619 31.0834 2.20825 31.0834H11.5416" stroke="#1E1E1E" stroke-width="2.5" stroke-linecap="round" stroke-linejoin="round"/>
<path d="M18.8333 1.91675V6.87508C18.8333 7.10715 18.9254 7.32971 19.0895 7.4938C19.2536 7.65789 19.4762 7.75008 19.7083 7.75008H24.6666" stroke="#1E1E1E" stroke-width="2.5" stroke-linecap="round" stroke-linejoin="round"/>
</svg>
