<svg width="40" height="41" viewBox="0 0 40 41" fill="none" xmlns="http://www.w3.org/2000/svg">
<path d="M31.6666 5.91678H11.2499C10.1785 5.88534 9.13825 6.27994 8.35723 7.0141C7.5762 7.74826 7.11808 8.76211 7.08325 9.83345V30.5001C7.12673 31.7572 7.66703 32.9457 8.58562 33.8049C9.50421 34.6641 10.7261 35.1239 11.9833 35.0835H31.6666C31.9968 35.0791 32.3122 34.9461 32.5457 34.7126C32.7792 34.4791 32.9123 34.1636 32.9166 33.8335V7.16678C32.9123 6.83661 32.7792 6.52117 32.5457 6.28767C32.3122 6.05418 31.9968 5.9211 31.6666 5.91678ZM30.4166 32.5835H11.9833C11.3889 32.6247 10.8024 32.4285 10.3525 32.038C9.90261 31.6474 9.62595 31.0944 9.58325 30.5001C9.62595 29.9059 9.90261 29.3528 10.3525 28.9623C10.8024 28.5717 11.3889 28.3755 11.9833 28.4168H30.4166V32.5835ZM30.4166 25.9168H11.9833C11.1442 25.9177 10.3188 26.1298 9.58325 26.5335V9.83345C9.62143 9.42659 9.81706 9.05075 10.1284 8.7861C10.4398 8.52144 10.8422 8.38891 11.2499 8.41678H30.4166V25.9168Z" fill="#1E1E1E"/>
<path d="M14.5833 15.0833H25.4166C25.7481 15.0833 26.066 14.9516 26.3005 14.7171C26.5349 14.4827 26.6666 14.1648 26.6666 13.8333C26.6666 13.5017 26.5349 13.1838 26.3005 12.9494C26.066 12.7149 25.7481 12.5833 25.4166 12.5833H14.5833C14.2517 12.5833 13.9338 12.7149 13.6994 12.9494C13.4649 13.1838 13.3333 13.5017 13.3333 13.8333C13.3333 14.1648 13.4649 14.4827 13.6994 14.7171C13.9338 14.9516 14.2517 15.0833 14.5833 15.0833ZM14.5833 20.9166H25.4166C25.7481 20.9166 26.066 20.7849 26.3005 20.5505C26.5349 20.316 26.6666 19.9981 26.6666 19.6666C26.6666 19.3351 26.5349 19.0171 26.3005 18.7827C26.066 18.5483 25.7481 18.4166 25.4166 18.4166H14.5833C14.2517 18.4166 13.9338 18.5483 13.6994 18.7827C13.4649 19.0171 13.3333 19.3351 13.3333 19.6666C13.3333 19.9981 13.4649 20.316 13.6994 20.5505C13.9338 20.7849 14.2517 20.9166 14.5833 20.9166Z" fill="#1E1E1E"/>
</svg>
