<svg width="16" height="17" viewBox="0 0 16 17" fill="none" xmlns="http://www.w3.org/2000/svg">
<path d="M8.00002 2.05534C4.31802 2.05534 1.33335 5.04001 1.33335 8.72201C1.33335 12.404 4.31802 15.3887 8.00002 15.3887C11.682 15.3887 14.6667 12.404 14.6667 8.72201H13.3334C13.3332 9.99898 12.8749 11.2335 12.0417 12.2012C11.2085 13.169 10.0558 13.8056 8.79297 13.9955C7.53018 14.1853 6.24119 13.9158 5.16028 13.2359C4.07937 12.5559 3.27829 11.5107 2.90266 10.2903C2.52702 9.06977 2.60176 7.75502 3.11329 6.58498C3.62482 5.41493 4.53918 4.46725 5.69019 3.9142C6.84119 3.36115 8.15242 3.23944 9.38556 3.57118C10.6187 3.90292 11.6919 4.6661 12.41 5.72201L10.6667 5.72201L10.6667 7.05534L14.6667 7.05534L14.6667 3.05534H13.3334V4.72201C12.7127 3.89365 11.9076 3.22134 10.9818 2.75845C10.056 2.29556 9.03508 2.05482 8.00002 2.05534Z" fill="black"/>
</svg>
