<svg width="22" height="22" viewBox="0 0 22 22" fill="none" xmlns="http://www.w3.org/2000/svg">
<path d="M9.31689 0.0500488C13.9601 0.285464 17.6528 4.12468 17.6528 8.82642L17.6411 9.27856C17.5452 11.1697 16.851 12.9027 15.7446 14.2932L21.7075 20.2571C22.0975 20.6471 22.0975 21.2792 21.7075 21.6692C21.3175 22.0591 20.6854 22.0592 20.2954 21.6692L14.3315 15.7053C12.8309 16.8996 10.9316 17.6145 8.86475 17.6145L8.4126 17.6028C3.91903 17.3751 0.316204 13.7721 0.0883789 9.27856L0.0766602 8.82642C0.0766602 3.97298 4.01131 0.0383301 8.86475 0.0383301L9.31689 0.0500488ZM8.86475 2.03833C5.11588 2.03833 2.07666 5.07755 2.07666 8.82642C2.07675 12.5752 5.11593 15.6145 8.86475 15.6145C12.6135 15.6144 15.6527 12.5752 15.6528 8.82642C15.6528 5.0776 12.6135 2.03842 8.86475 2.03833Z" fill="black"/>
</svg>
