<svg width="20" height="20" viewBox="0 0 20 20" fill="none" xmlns="http://www.w3.org/2000/svg">
<path d="M8.24121 0.0107422C12.3821 0.22771 15.6748 3.76366 15.6748 8.09375L15.665 8.50977C15.5959 9.91939 15.1752 11.2325 14.4951 12.3613L19.6084 17.6416C20.1308 18.1811 20.1308 19.0562 19.6084 19.5957C19.086 20.1352 18.2383 20.1352 17.7158 19.5957L12.7129 14.4287C11.3746 15.5283 9.68101 16.1864 7.83789 16.1865L7.43457 16.1768C3.42679 15.9672 0.21281 12.6484 0.00976562 8.50977L0 8.09375C0 3.62385 3.50935 0 7.83789 0L8.24121 0.0107422ZM7.83789 2.5C4.96519 2.5 2.5 4.92823 2.5 8.09375C2.50014 11.2591 4.96527 13.6865 7.83789 13.6865C10.7103 13.6863 13.1747 11.259 13.1748 8.09375C13.1748 4.92836 10.7104 2.50021 7.83789 2.5Z" fill="url(#paint0_linear_171_461)"/>
<defs>
<linearGradient id="paint0_linear_171_461" x1="1.6667" y1="3.33341" x2="20.0004" y2="18.8892" gradientUnits="userSpaceOnUse">
<stop stop-color="#DEE3FF"/>
<stop offset="1" stop-color="#213CE9"/>
</linearGradient>
</defs>
</svg>
