<svg width="17" height="18" viewBox="0 0 17 18" fill="none" xmlns="http://www.w3.org/2000/svg">
<path d="M7.00488 0.00878906C10.5245 0.193167 13.323 3.19857 13.3232 6.87891C13.3232 8.32708 12.8884 9.6698 12.1484 10.7783L16.5586 15.3311C16.9427 15.7277 16.9424 16.3708 16.5586 16.7676C16.1744 17.1643 15.5512 17.1643 15.167 16.7676L10.8047 12.2627C9.66722 13.1976 8.22886 13.7587 6.66211 13.7588L6.31934 13.75C2.79927 13.5659 0 10.5597 0 6.87891C0.000237812 3.07975 2.98305 0 6.66211 0L7.00488 0.00878906ZM6.66211 2C4.1477 2 2.00024 4.12326 2 6.87891C2 9.63477 4.14757 11.7588 6.66211 11.7588C9.17652 11.7586 11.3232 9.63466 11.3232 6.87891C11.323 4.12337 9.17638 2.00018 6.66211 2Z" fill="#ACACAC"/>
</svg>
