<svg width="35" height="35" viewBox="0 0 35 35" fill="none" xmlns="http://www.w3.org/2000/svg">
<path d="M19.3864 0C19.9009 0 20.3612 0.32025 20.5344 0.79975L21.7699 4.2245C22.2121 4.33417 22.5936 4.44617 22.9144 4.5605C23.2644 4.68533 23.7194 4.87783 24.2794 5.138L27.1564 3.6155C27.3911 3.49052 27.6601 3.44529 27.9227 3.48665C28.1854 3.528 28.4275 3.6537 28.6124 3.84475L31.1429 6.461C31.4789 6.80925 31.5734 7.3185 31.3844 7.763L30.0352 10.9253C30.258 11.3359 30.4377 11.6883 30.5742 11.9823C30.7212 12.3008 30.9032 12.7441 31.1202 13.3123L34.2649 14.6598C34.7374 14.861 35.0297 15.3335 34.9982 15.8393L34.7672 19.4705C34.7514 19.7064 34.6667 19.9325 34.5236 20.1207C34.3805 20.3089 34.1853 20.451 33.9622 20.5293L30.9837 21.588C30.8985 21.9987 30.8087 22.3522 30.7142 22.6485C30.5612 23.1078 30.3872 23.5598 30.1927 24.003L31.6889 27.3105C31.7954 27.5427 31.8242 27.8031 31.7713 28.053C31.7184 28.3029 31.5864 28.5291 31.3949 28.6983L28.5494 31.2393C28.3624 31.4066 28.1285 31.5124 27.8793 31.5424C27.6302 31.5725 27.3779 31.5253 27.1564 31.4073L24.2234 29.8533C23.765 30.0972 23.2915 30.3117 22.8059 30.4955L21.5249 30.975L20.3874 34.125C20.3023 34.3551 20.15 34.5544 19.9503 34.697C19.7506 34.8396 19.5127 34.919 19.2674 34.9248L15.9424 35C15.6905 35.0059 15.4429 34.9339 15.2334 34.7939C15.0239 34.6539 14.8627 34.4527 14.7717 34.2178L13.4312 30.6705C12.9739 30.5139 12.5211 30.3446 12.0732 30.163C11.7069 30.0045 11.3462 29.8335 10.9917 29.6503L7.66666 31.0713C7.44766 31.1652 7.20602 31.1932 6.97134 31.1518C6.73666 31.1105 6.51914 31.0016 6.34541 30.8385L3.88491 28.5303C3.70104 28.3596 3.5758 28.1352 3.52709 27.8891C3.47837 27.643 3.50867 27.3878 3.61366 27.16L5.04341 24.045C4.85393 23.6757 4.67766 23.2998 4.51491 22.918C4.32534 22.4504 4.15026 21.9771 3.98991 21.4988L0.857411 20.545C0.602787 20.468 0.380701 20.3092 0.225643 20.093C0.0705847 19.8769 -0.0087672 19.6156 -8.93509e-05 19.3498L0.122411 15.988C0.131511 15.7688 0.200184 15.5561 0.32105 15.373C0.441916 15.1898 0.610405 15.0431 0.808411 14.9485L4.09491 13.37C4.24658 12.8123 4.38074 12.376 4.49741 12.061C4.66253 11.6379 4.84587 11.2222 5.04691 10.815L3.62241 7.805C3.51349 7.57659 3.48021 7.3194 3.52741 7.07079C3.57462 6.82218 3.69985 6.59509 3.88491 6.4225L6.34191 4.102C6.51392 3.93917 6.72944 3.82969 6.96239 3.78683C7.19533 3.74397 7.43571 3.76956 7.65441 3.8605L10.9759 5.2325C11.3422 4.98867 11.6759 4.788 11.9769 4.6305C12.3351 4.4415 12.8157 4.23967 13.4189 4.025L14.5739 0.80325C14.6602 0.568036 14.8165 0.364923 15.0217 0.221295C15.227 0.0776677 15.4714 0.000431566 15.7219 0L19.3864 0ZM18.5289 2.40975H16.5812L15.5224 5.37425C15.4594 5.54666 15.3584 5.7027 15.2269 5.83083C15.0955 5.95896 14.9369 6.05591 14.7629 6.1145C13.9999 6.36825 13.4487 6.587 13.1267 6.75675C12.7837 6.93758 12.352 7.21175 11.8317 7.57925C11.6623 7.69869 11.4655 7.77322 11.2595 7.79586C11.0535 7.81851 10.8452 7.78854 10.6539 7.70875L7.45141 6.3875L6.20366 7.567L7.50391 10.3145C7.58175 10.478 7.62127 10.657 7.61945 10.8381C7.61763 11.0191 7.57452 11.1974 7.49341 11.3593C7.14341 12.061 6.90716 12.579 6.78816 12.8975C6.6049 13.4275 6.44722 13.9659 6.31566 14.511C6.27169 14.6815 6.19095 14.8404 6.0791 14.9764C5.96725 15.1125 5.82699 15.2224 5.66816 15.2985L2.53566 16.8018L2.47266 18.5168L5.30766 19.3778C5.68391 19.4915 5.98141 19.7803 6.10566 20.1513C6.38683 20.9936 6.60849 21.6096 6.77066 21.9993C6.98399 22.4923 7.21991 22.9752 7.47766 23.4465C7.56486 23.6087 7.61325 23.7888 7.61902 23.9728C7.62479 24.1569 7.58778 24.3397 7.51091 24.507L6.19666 27.3735L7.44091 28.5425L10.5594 27.209C10.7273 27.1369 10.9092 27.1032 11.0918 27.1104C11.2744 27.1177 11.453 27.1657 11.6147 27.251C12.2563 27.587 12.7282 27.8192 13.0304 27.9475C13.3367 28.0753 13.9229 28.2888 14.7734 28.5793C14.9418 28.6376 15.0955 28.7321 15.2237 28.856C15.3518 28.98 15.4514 29.1304 15.5154 29.2968L16.7544 32.571L18.3749 32.536L19.4197 29.6415C19.4802 29.4768 19.5755 29.327 19.699 29.2023C19.8225 29.0776 19.9713 28.9809 20.1354 28.9188L21.9502 28.2397C22.4098 28.0706 22.9646 27.8023 23.6144 27.4348C23.7939 27.3333 23.9962 27.2789 24.2024 27.2764C24.4085 27.274 24.612 27.3236 24.7939 27.4208L27.5537 28.882L29.1059 27.4978L27.7479 24.5C27.6781 24.3461 27.6418 24.1792 27.6415 24.0102C27.6412 23.8412 27.6769 23.6741 27.7462 23.52C28.0647 22.8078 28.2799 22.2705 28.3884 21.9275C28.4969 21.5892 28.6048 21.1079 28.7122 20.4838C28.7489 20.2721 28.8414 20.0741 28.9801 19.9102C29.1188 19.7462 29.2988 19.6222 29.5014 19.551L32.3854 18.5273L32.5114 16.5322L29.6764 15.3178C29.5259 15.2528 29.39 15.1583 29.2766 15.0399C29.1633 14.9215 29.0749 14.7815 29.0167 14.6283C28.8149 14.0703 28.5943 13.5193 28.3552 12.9763C28.1292 12.5033 27.884 12.0397 27.6202 11.5868C27.5285 11.4268 27.4753 11.2478 27.4646 11.0637C27.454 10.8797 27.4863 10.6957 27.5589 10.5263L28.8277 7.55125L27.4907 6.16875L24.8867 7.54775C24.7168 7.63832 24.528 7.68757 24.3355 7.69152C24.143 7.69548 23.9524 7.65401 23.7789 7.5705C23.2265 7.29498 22.6612 7.0462 22.0849 6.825C21.594 6.65925 21.0931 6.52482 20.5852 6.4225C20.3841 6.37887 20.1972 6.2853 20.0419 6.15042C19.8865 6.01554 19.7676 5.8437 19.6962 5.65075L18.5289 2.40975ZM17.5419 9.87175C21.8032 9.87175 25.2594 13.2895 25.2594 17.5035C25.2594 21.7175 21.8032 25.1335 17.5419 25.1335C13.2807 25.1335 9.82441 21.7175 9.82441 17.5035C9.82441 13.2895 13.2789 9.8735 17.5419 9.8735M17.5419 12.285C14.6247 12.285 12.2604 14.6213 12.2604 17.5053C12.2604 20.3893 14.6247 22.7273 17.5419 22.7273C20.4592 22.7273 22.8217 20.3893 22.8217 17.5053C22.8217 14.6213 20.4592 12.285 17.5419 12.285Z" fill="#1E1E1E"/>
</svg>
