<svg width="26" height="26" viewBox="0 0 26 26" fill="none" xmlns="http://www.w3.org/2000/svg">
<path d="M21.5442 13.5756L23.0132 14.8837C23.2845 15.1101 23.4658 15.4261 23.5242 15.7746C23.5826 16.123 23.5143 16.4809 23.3317 16.7833L21.5605 19.8091C21.4231 20.0407 21.2269 20.2319 20.9917 20.3632C20.7539 20.4948 20.4868 20.5647 20.215 20.5663C20.0464 20.5674 19.8786 20.5422 19.7177 20.4916L17.8376 19.8708C17.5083 20.0821 17.166 20.2711 16.8106 20.438L16.4157 22.3441C16.3427 22.6947 16.1474 23.008 15.8649 23.2281C15.5787 23.4521 15.224 23.5704 14.8606 23.5628H11.193C10.8297 23.5704 10.4749 23.4521 10.1887 23.2281C9.90677 23.0077 9.71214 22.6945 9.63949 22.3441L9.24299 20.438C8.89232 20.2689 8.55209 20.079 8.22412 19.8692L6.33749 20.4916C6.17663 20.5422 6.00887 20.5674 5.84025 20.5663C5.56897 20.5644 5.30249 20.4946 5.06512 20.3632C4.83021 20.2323 4.63401 20.0417 4.49637 19.8107L2.66174 16.7833C2.47102 16.4781 2.39814 16.1138 2.45677 15.7588C2.5154 15.4037 2.70152 15.0821 2.98024 14.8545L4.44762 13.0003V12.4251L2.97862 11.117C2.70735 10.8906 2.52609 10.5746 2.46767 10.2261C2.40925 9.87766 2.47752 9.51981 2.66012 9.21734L4.49474 6.19159C4.63216 5.95997 4.82838 5.7688 5.06349 5.63746C5.30086 5.50611 5.56734 5.43628 5.83862 5.43434C6.00572 5.4238 6.17345 5.43914 6.33587 5.47984L8.18512 6.12984C8.51554 5.91859 8.85787 5.72955 9.21212 5.56271L9.60862 3.65659C9.68127 3.30619 9.8759 2.99293 10.1579 2.77259C10.444 2.54857 10.7988 2.43032 11.1621 2.43784H14.7989C15.1622 2.43032 15.517 2.54857 15.8031 2.77259C16.0875 2.99521 16.2825 3.30884 16.3524 3.65659L16.7489 5.56271C17.101 5.73063 17.4406 5.92021 17.7677 6.13146L19.656 5.51071C19.8656 5.44254 20.087 5.4186 20.3063 5.44042C20.5256 5.46224 20.738 5.52933 20.93 5.63746C21.1656 5.77071 21.3606 5.96246 21.4987 6.18996L23.3317 9.21734C23.525 9.51995 23.6016 9.88255 23.5472 10.2375C23.4928 10.5924 23.3111 10.9154 23.036 11.1462L21.5442 12.417V13.5756Z" stroke="black" stroke-width="1.625"/>
<path d="M17.0625 13C17.0625 14.0774 16.6345 15.1108 15.8726 15.8726C15.1108 16.6345 14.0774 17.0625 13 17.0625C11.9226 17.0625 10.8892 16.6345 10.1274 15.8726C9.36551 15.1108 8.9375 14.0774 8.9375 13C8.9375 11.9226 9.36551 10.8892 10.1274 10.1274C10.8892 9.36551 11.9226 8.9375 13 8.9375C14.0774 8.9375 15.1108 9.36551 15.8726 10.1274C16.6345 10.8892 17.0625 11.9226 17.0625 13Z" stroke="black" stroke-width="1.625"/>
</svg>
