<svg width="12" height="12" viewBox="0 0 12 12" fill="none" xmlns="http://www.w3.org/2000/svg">
<path d="M6.28244 3.19922H5.71877C5.6672 3.19922 5.62502 3.24141 5.62502 3.29297V6.51914C5.62502 6.54961 5.63908 6.57774 5.66369 6.59531L7.6008 8.00977C7.64299 8.04024 7.70158 8.03203 7.73205 7.98984L8.0672 7.53281C8.09885 7.48945 8.08947 7.43086 8.04728 7.40156L6.37619 6.19336V3.29297C6.37619 3.24141 6.334 3.19922 6.28244 3.19922ZM8.85822 4.08047L10.6957 4.5293C10.7543 4.54336 10.8117 4.49883 10.8117 4.43906L10.8211 2.54649C10.8211 2.46797 10.7309 2.42344 10.6699 2.47266L8.82306 3.91524C8.80911 3.92603 8.79848 3.94055 8.7924 3.95712C8.78633 3.97369 8.78506 3.99164 8.78873 4.0089C8.7924 4.02616 8.80087 4.04203 8.81316 4.05469C8.82546 4.06736 8.84107 4.07629 8.85822 4.08047ZM10.8235 7.60898L10.159 7.38047C10.1358 7.37253 10.1105 7.37397 10.0884 7.38448C10.0662 7.39499 10.0491 7.41374 10.0406 7.43672C10.0184 7.49649 9.99494 7.55508 9.97033 7.61367C9.76174 8.10703 9.46291 8.55117 9.08088 8.93203C8.70309 9.31099 8.25536 9.61306 7.76252 9.82148C7.25196 10.0373 6.70315 10.1481 6.14884 10.1473C5.58869 10.1473 5.04611 10.0383 4.53517 9.82148C4.04233 9.61306 3.5946 9.31099 3.21681 8.93203C2.83595 8.55117 2.53713 8.10703 2.32736 7.61367C2.11268 7.10284 2.0027 6.55411 2.00392 6C2.00392 5.43984 2.11291 4.8961 2.3297 4.38516C2.5383 3.8918 2.83713 3.44766 3.21916 3.0668C3.59695 2.68784 4.04467 2.38577 4.53752 2.17735C5.04611 1.96055 5.58986 1.85156 6.15002 1.85156C6.71017 1.85156 7.25275 1.96055 7.76369 2.17735C8.25653 2.38577 8.70426 2.68784 9.08205 3.0668C9.20158 3.1875 9.31408 3.31289 9.4172 3.44531L10.118 2.89688C9.19572 1.71797 7.76017 0.959767 6.14767 0.960939C3.33986 0.962111 1.08517 3.24258 1.1133 6.05156C1.14142 8.81133 3.38556 11.0391 6.15002 11.0391C8.32384 11.0391 10.1754 9.66094 10.8809 7.73086C10.8985 7.68164 10.8727 7.62656 10.8235 7.60898Z" fill="#213CE9"/>
</svg>
