<svg width="14" height="15" viewBox="0 0 14 15" fill="none" xmlns="http://www.w3.org/2000/svg">
<path fill-rule="evenodd" clip-rule="evenodd" d="M8.20274 3.99079C6.82293 3.84668 5.43244 3.83593 4.05057 3.95871L3.12774 4.04096C2.75743 4.07417 2.40912 4.2312 2.13902 4.48669C1.86892 4.74218 1.6928 5.08124 1.63907 5.44913C1.41946 6.95002 1.41946 8.47489 1.63907 9.97579C1.69292 10.3437 1.86916 10.6828 2.13936 10.9383C2.40955 11.1938 2.75795 11.3508 3.12832 11.384L4.05115 11.4656C5.43301 11.5886 6.82349 11.578 8.20332 11.4341L8.55799 11.3968C8.91004 11.3599 9.24107 11.2113 9.5027 10.9729C9.76434 10.7344 9.94287 10.4186 10.0122 10.0715L11.7897 11.0153C11.8535 11.0492 11.9247 11.0668 11.9969 11.0664C12.0692 11.0661 12.1402 11.0479 12.2037 11.0134C12.2672 10.9789 12.3212 10.9292 12.3608 10.8688C12.4004 10.8083 12.4244 10.739 12.4307 10.667L12.4453 10.5014C12.6073 8.64543 12.6073 6.7789 12.4453 4.92296L12.4307 4.75729C12.4244 4.68528 12.4003 4.61596 12.3606 4.55553C12.3209 4.4951 12.2669 4.44544 12.2033 4.41101C12.1398 4.37657 12.0687 4.35841 11.9964 4.35817C11.9241 4.35793 11.8529 4.37561 11.7891 4.40963L10.0122 5.35346C9.94287 5.00633 9.76434 4.69048 9.5027 4.45204C9.24107 4.2136 8.91004 4.06506 8.55799 4.02813L8.20274 3.99079ZM4.12874 4.83021C5.45409 4.71182 6.7878 4.72217 8.11115 4.86113L8.46582 4.89846C8.63911 4.91681 8.80137 4.99228 8.92705 5.11299C9.05273 5.23371 9.13468 5.3928 9.15999 5.56521C9.36882 6.98913 9.36882 8.43521 9.15999 9.85971C9.13468 10.0321 9.05273 10.1912 8.92705 10.3119C8.80137 10.4326 8.63911 10.5081 8.46582 10.5265L8.11115 10.5638C6.7878 10.7027 5.45409 10.7131 4.12874 10.5947L3.2059 10.5119C3.0315 10.4963 2.86741 10.4225 2.7401 10.3023C2.61279 10.182 2.52967 10.0224 2.50415 9.84921C2.29682 8.43225 2.29682 6.99267 2.50415 5.57571C2.52946 5.40233 2.61249 5.24255 2.73983 5.1222C2.86717 5.00184 3.03137 4.92795 3.2059 4.91246L4.12874 4.83021ZM10.1266 6.28329C10.2135 7.23413 10.2135 8.19079 10.1266 9.14163L11.6123 9.93088C11.7186 8.45384 11.7186 6.97108 11.6123 5.49404L10.1266 6.28329Z" fill="#1E1E1E"/>
</svg>
