<svg width="20" height="20" viewBox="0 0 20 20" fill="none" xmlns="http://www.w3.org/2000/svg">
<path d="M17.2554 1.25586C17.6664 0.844835 18.3326 0.844864 18.7437 1.25586C19.1543 1.66696 19.1546 2.33319 18.7437 2.74414L11.4878 10L18.7437 17.2559C19.1543 17.667 19.1546 18.3332 18.7437 18.7441C18.3327 19.155 17.6665 19.1548 17.2554 18.7441L9.99951 11.4883L2.74463 18.7432C2.33368 19.1541 1.66745 19.1539 1.25635 18.7432C0.845272 18.3321 0.845271 17.666 1.25635 17.2549L8.51123 10L1.25635 2.74512C0.845271 2.33404 0.845272 1.66791 1.25635 1.25684C1.66743 0.845787 2.33356 0.84577 2.74463 1.25684L9.99951 8.51172L17.2554 1.25586Z" fill="#666666"/>
</svg>
