<svg width="20" height="20" viewBox="0 0 20 20" fill="none" xmlns="http://www.w3.org/2000/svg">
<path d="M17.2546 1.25631C17.6656 0.845312 18.3318 0.845464 18.7429 1.25631C19.154 1.66739 19.154 2.33352 18.7429 2.74459L11.487 9.99947L18.7429 17.2553C19.154 17.6664 19.154 18.3325 18.7429 18.7436C18.3318 19.1544 17.6656 19.1546 17.2546 18.7436L9.99877 11.4878L2.74388 18.7436C2.33278 19.1544 1.66659 19.1546 1.2556 18.7436C0.844776 18.3326 0.844847 17.6664 1.2556 17.2553L8.51049 9.99947L1.2556 2.74459C0.844809 2.33357 0.844815 1.66734 1.2556 1.25631C1.66661 0.845304 2.33279 0.845445 2.74388 1.25631L9.99877 8.51119L17.2546 1.25631Z" fill="white"/>
</svg>
